<svg width="400" height="400" viewBox="0 0 400 400" fill="none" xmlns="http://www.w3.org/2000/svg">
    <path d="M51 147.029C51 145.381 52.0106 143.902 53.5458 143.303L343.546 30.1285C346.169 29.105 349 31.0394 349 33.8548V69.2899C349 70.9378 347.989 72.4171 346.454 73.0162L56.4542 186.191C53.8314 187.214 51 185.28 51 182.464V147.029Z" fill="#50FFAB"/>
    <path d="M51 241.147C51 239.499 52.0106 238.02 53.5458 237.42L193.548 182.784C196.171 181.76 199.003 183.694 199.003 186.51V221.945C199.003 223.593 197.992 225.072 196.457 225.671L56.4542 280.308C53.8314 281.332 51 279.397 51 276.582V241.147Z" fill="#50FFAB"/>
    <path d="M51 330.71C51 329.062 52.0106 327.583 53.5458 326.984L343.546 213.809C346.169 212.786 349 214.72 349 217.536V252.971C349 254.619 347.989 256.098 346.454 256.697L56.4542 369.871C53.8314 370.895 51 368.961 51 366.145V330.71Z" fill="#50FFAB"/>
</svg>
