<svg width="1810" height="422" viewBox="0 0 1810 422" fill="none" xmlns="http://www.w3.org/2000/svg">
<path d="M300 175.854C300 174.207 301.01 172.728 302.544 172.129L499.544 95.1325C502.167 94.1073 505 96.0417 505 98.858V120.598C505 122.245 503.99 123.724 502.456 124.324L305.456 201.32C302.833 202.345 300 200.411 300 197.594V175.854Z" fill="#50FFAB"/>
<path d="M300 240.697C300 239.05 301.01 237.571 302.544 236.971L396.358 200.305C398.981 199.279 401.814 201.214 401.814 204.03V225.77C401.814 227.418 400.804 228.896 399.27 229.496L305.456 266.163C302.833 267.188 300 265.253 300 262.437V240.697Z" fill="#50FFAB"/>
<path d="M300 302.402C300 300.755 301.01 299.276 302.544 298.676L499.544 221.68C502.167 220.655 505 222.589 505 225.406V247.146C505 248.793 503.99 250.272 502.456 250.871L305.456 327.868C302.833 328.893 300 326.958 300 324.142V302.402Z" fill="#50FFAB"/>
<path d="M1040 130H921V156.833H967.278V210.5V264.167H921V291H1040V264.167H993.722V210.5V156.833H1040V130Z" fill="#404040"/>
<path d="M773 291V130H802.75V264.167H892V291H773Z" fill="#404040"/>
<path d="M744 130H625V156H744V130Z" fill="#404040"/>
<path d="M625 265V291H744V265H625Z" fill="#404040"/>
<path d="M744 198H625V223H744V198Z" fill="#404040"/>
<mask id="mask0_504_68" style="mask-type:alpha" maskUnits="userSpaceOnUse" x="1062" y="131" width="119" height="161">
<rect x="1062" y="131" width="119" height="161" fill="#FF0000"/>
</mask>
<g mask="url(#mask0_504_68)">
<path fill-rule="evenodd" clip-rule="evenodd" d="M1185.85 129.472L1163.33 116.472L1122.32 187.503L1081.31 116.472L1058.8 129.472L1107.31 213.503L1058.8 297.534L1081.31 310.534L1122.32 239.503L1122.33 239.514L1137.34 213.514L1137.34 213.503L1185.85 129.472ZM1152.35 239.514L1137.34 265.514L1163.33 310.534L1185.85 297.534L1152.35 239.514Z" fill="#404040"/>
</g>
<path fill-rule="evenodd" clip-rule="evenodd" d="M1269 156.72C1245.43 162.727 1228 184.095 1228 209.535C1228 234.975 1245.43 256.344 1269 262.35V288.908C1230.97 282.486 1202 249.394 1202 209.535C1202 169.677 1230.97 136.584 1269 130.162V156.72ZM1295 130V156.475C1319.07 162.125 1337 183.737 1337 209.535C1337 235.333 1319.07 256.945 1295 262.595V289.07C1333.52 283.065 1363 249.742 1363 209.535C1363 169.328 1333.52 136.006 1295 130Z" fill="#404040"/>
<mask id="mask1_504_68" style="mask-type:alpha" maskUnits="userSpaceOnUse" x="1391" y="131" width="119" height="161">
<rect x="1391" y="131" width="119" height="161" fill="#FF0000"/>
</mask>
<g mask="url(#mask1_504_68)">
<path d="M1391 223H1417V292H1391V223Z" fill="#404040"/>
<path d="M1391 197H1470V217C1470 220.314 1467.31 223 1464 223H1391V197Z" fill="#404040"/>
<path d="M1391 131H1464C1467.31 131 1470 133.686 1470 137V157H1391V131Z" fill="#404040"/>
<path d="M1484 177C1484 188.046 1475.05 197 1464 197L1464 223C1489.41 223 1510 202.405 1510 177C1510 151.595 1489.41 131 1464 131C1463.97 131 1463.94 131 1463.91 131L1464 131L1464 157C1475.05 157 1484 165.954 1484 177Z" fill="#404040"/>
<path d="M1440.11 211.287L1462.96 198.88L1510.05 285.616L1487.2 298.022L1440.11 211.287Z" fill="#404040"/>
<path d="M1510 292V285.5L1498 292H1510Z" fill="#404040"/>
</g>
</svg>
