<svg width="1920" height="391" viewBox="0 0 1920 391" fill="none" xmlns="http://www.w3.org/2000/svg">
    <g clip-path="url(#clip0_730_42)">
        <path d="M437.466 261H419.601C414.851 261 411 257.149 411 252.399V137.601C411 132.851 414.851 129 419.601 129H437.466V261Z" fill="#FF556E"/>
        <path d="M529.435 129H437.466V155.4H529.435C534.186 155.4 538.036 151.549 538.036 146.799V137.601C538.036 132.851 534.186 129 529.435 129Z" fill="#FF556E"/>
        <path d="M497.676 181.8H437.466V208.2H497.676C502.426 208.2 506.277 204.349 506.277 199.599V190.402C506.277 185.651 502.426 181.8 497.676 181.8Z" fill="#FF556E"/>
        <path d="M529.435 234.6H437.466V261H529.435C534.186 261 538.036 257.149 538.036 252.399V243.202C538.036 238.451 534.186 234.6 529.435 234.6Z" fill="#FF556E"/>
        <path d="M638.664 130.529C637.785 129.556 636.536 129 635.225 129H607.847C603.859 129 601.736 133.705 604.374 136.696L712.653 259.432C713.532 260.429 714.797 261 716.126 261H745.964C749.977 261 752.091 256.245 749.403 253.266L638.664 130.529Z" fill="#FF556E"/>
        <path d="M715.302 130.529C716.181 129.556 717.43 129 718.741 129H746.119C750.107 129 752.23 133.705 749.592 136.696L641.313 259.432C640.434 260.429 639.169 261 637.84 261H608.002C603.989 261 601.875 256.245 604.563 253.266L715.302 130.529Z" fill="#FF556E"/>
        <path d="M749.764 136.26L702.35 190.833C699.951 193.594 699.974 197.706 702.403 200.441L749.764 253.74L698.66 200.651C695.969 197.856 695.944 193.441 698.603 190.616L749.764 136.26Z" fill="#FF556E"/>
        <path d="M604.201 136.92L651.616 191.492C654.015 194.254 653.992 198.366 651.562 201.1L604.201 254.4L655.306 201.311C657.997 198.516 658.022 194.101 655.363 191.275L604.201 136.92Z" fill="#FF556E"/>
        <path d="M627.359 129L672.207 167.771C674.948 170.14 679.013 170.133 681.745 167.755L726.276 129L681.999 171.388C679.192 174.076 674.767 174.083 671.951 171.404L627.359 129Z" fill="#FF556E"/>
        <path d="M723.96 261L681.73 225.105C678.998 222.783 674.98 222.797 672.264 225.139L630.667 261L671.773 218.24C674.623 215.276 679.36 215.259 682.231 218.203L723.96 261Z" fill="#FF556E"/>
        <path d="M882.095 141.902C911.462 141.902 935.357 165.717 935.357 195C935.357 224.283 911.462 248.098 882.095 248.098C852.728 248.098 828.832 224.283 828.832 195C828.832 165.717 852.728 141.902 882.095 141.902Z" stroke="#FF556E" stroke-width="25.8043"/>
        <path d="M1007.81 247.767V137.601C1007.81 132.851 1011.66 129 1016.41 129H1025.67C1030.42 129 1034.27 132.851 1034.27 137.601V227.984C1034.27 231.638 1037.24 234.6 1040.89 234.6H1085.22C1089.97 234.6 1093.82 238.451 1093.82 243.201V252.399C1093.82 257.149 1089.97 261 1085.22 261H1021.04C1013.73 261 1007.81 255.075 1007.81 247.767Z" fill="#FF556E"/>
        <path d="M1283.05 261H1161.97C1157.22 261 1153.37 257.149 1153.37 252.399V243.201C1153.37 238.451 1157.22 234.6 1161.97 234.6H1199.43C1203.09 234.6 1206.05 231.638 1206.05 227.984V162.016C1206.05 158.362 1203.09 155.4 1199.43 155.4H1161.97C1157.22 155.4 1153.37 151.549 1153.37 146.799V137.601C1153.37 132.851 1157.22 129 1161.97 129H1283.05C1287.8 129 1291.66 132.851 1291.66 137.601V146.799C1291.66 151.549 1287.8 155.4 1283.05 155.4H1245.59C1241.94 155.4 1238.98 158.362 1238.98 162.016V227.984C1238.98 231.638 1241.94 234.6 1245.59 234.6H1283.05C1287.8 234.6 1291.66 238.451 1291.66 243.201V252.399C1291.66 257.149 1287.8 261 1283.05 261Z" fill="#FF556E"/>
        <path d="M1392.28 130.529C1391.4 129.556 1390.16 129 1388.84 129H1361.47C1357.48 129 1355.36 133.705 1357.99 136.696L1466.27 259.432C1467.15 260.429 1468.42 261 1469.74 261H1499.58C1503.6 261 1505.71 256.245 1503.02 253.266L1392.28 130.529Z" fill="#FF556E"/>
        <path d="M1468.92 130.529C1469.8 129.556 1471.05 129 1472.36 129H1499.74C1503.73 129 1505.85 133.705 1503.21 136.696L1394.93 259.432C1394.05 260.429 1392.79 261 1391.46 261H1361.62C1357.61 261 1355.49 256.245 1358.18 253.266L1468.92 130.529Z" fill="#FF556E"/>
        <path d="M1503.38 136.26L1455.97 190.833C1453.57 193.594 1453.59 197.706 1456.02 200.441L1503.38 253.74L1452.28 200.651C1449.59 197.856 1449.56 193.441 1452.22 190.616L1503.38 136.26Z" fill="#FF556E"/>
        <path d="M1357.82 136.92L1405.24 191.492C1407.63 194.254 1407.61 198.366 1405.18 201.1L1357.82 254.4L1408.93 201.311C1411.62 198.516 1411.64 194.101 1408.98 191.275L1357.82 136.92Z" fill="#FF556E"/>
        <path d="M1380.98 129L1425.83 167.771C1428.57 170.14 1432.63 170.133 1435.36 167.755L1479.9 129L1435.62 171.388C1432.81 174.076 1428.39 174.083 1425.57 171.404L1380.98 129Z" fill="#FF556E"/>
        <path d="M1477.58 261L1435.35 225.105C1432.62 222.783 1428.6 222.797 1425.88 225.139L1384.29 261L1425.39 218.24C1428.24 215.276 1432.98 215.259 1435.85 218.203L1477.58 261Z" fill="#FF556E"/>
    </g>
    <defs>
        <clipPath id="clip0_730_42">
            <rect width="1920" height="391" rx="30" fill="white"/>
        </clipPath>
    </defs>
</svg>
