<svg width="1810" height="422" viewBox="0 0 1810 422" fill="none" xmlns="http://www.w3.org/2000/svg">
    <path d="M1051 130H932V156.833H978.278V210.5V264.167H932V291H1051V264.167H1004.72V210.5V156.833H1051V130Z" fill="#404040"/>
    <path d="M784 291V130H813.75V264.167H903V291H784Z" fill="#404040"/>
    <path d="M755 130H636V156H755V130Z" fill="#404040"/>
    <path d="M636 265V291H755V265H636Z" fill="#404040"/>
    <path d="M755 198H636V223H755V198Z" fill="#404040"/>
    <mask id="mask0_504_68" style="mask-type:alpha" maskUnits="userSpaceOnUse" x="1073" y="131" width="119" height="161">
        <rect x="1073" y="131" width="119" height="161" fill="#FF0000"/>
    </mask>
    <g mask="url(#mask0_504_68)">
        <path fill-rule="evenodd" clip-rule="evenodd" d="M1196.85 129.472L1174.33 116.472L1133.32 187.503L1092.31 116.472L1069.8 129.472L1118.31 213.503L1069.8 297.534L1092.31 310.534L1133.32 239.503L1133.33 239.514L1148.34 213.514L1148.34 213.503L1196.85 129.472ZM1163.35 239.514L1148.34 265.514L1174.33 310.534L1196.85 297.534L1163.35 239.514Z" fill="#404040"/>
    </g>
    <path fill-rule="evenodd" clip-rule="evenodd" d="M1280 156.72C1256.43 162.727 1239 184.095 1239 209.535C1239 234.975 1256.43 256.344 1280 262.35V288.908C1241.97 282.486 1213 249.394 1213 209.535C1213 169.677 1241.97 136.584 1280 130.162V156.72ZM1306 130V156.475C1330.07 162.125 1348 183.737 1348 209.535C1348 235.333 1330.07 256.945 1306 262.595V289.07C1344.52 283.065 1374 249.742 1374 209.535C1374 169.328 1344.52 136.006 1306 130Z" fill="#404040"/>
    <mask id="mask1_504_68" style="mask-type:alpha" maskUnits="userSpaceOnUse" x="1402" y="131" width="119" height="161">
        <rect x="1402" y="131" width="119" height="161" fill="#FF0000"/>
    </mask>
    <g mask="url(#mask1_504_68)">
        <path d="M1402 223H1428V292H1402V223Z" fill="#404040"/>
        <path d="M1402 197H1481V217C1481 220.314 1478.31 223 1475 223H1402V197Z" fill="#404040"/>
        <path d="M1402 131H1475C1478.31 131 1481 133.686 1481 137V157H1402V131Z" fill="#404040"/>
        <path d="M1495 177C1495 188.046 1486.05 197 1475 197L1475 223C1500.41 223 1521 202.405 1521 177C1521 151.595 1500.41 131 1475 131C1474.97 131 1474.94 131 1474.91 131L1475 131L1475 157C1486.05 157 1495 165.954 1495 177Z" fill="#404040"/>
        <path d="M1451.11 211.287L1473.96 198.88L1521.05 285.616L1498.2 298.022L1451.11 211.287Z" fill="#404040"/>
        <path d="M1521 292V285.5L1509 292H1521Z" fill="#404040"/>
    </g>
    <path d="M330.163 169.785C330.163 168.488 330.958 167.323 332.167 166.851L560.542 77.726C562.608 76.92 564.838 78.4433 564.838 80.6605V108.566C564.838 109.863 564.042 111.028 562.833 111.5L334.458 200.625C332.392 201.431 330.163 199.908 330.163 197.69V169.785Z" fill="url(#paint0_linear_504_68)"/>
    <path d="M330.163 243.903C330.163 242.605 330.958 241.44 332.167 240.968L442.419 197.942C444.485 197.136 446.715 198.659 446.715 200.876V228.781C446.715 230.079 445.919 231.244 444.71 231.716L334.458 274.742C332.392 275.548 330.163 274.025 330.163 271.808V243.903Z" fill="url(#paint1_linear_504_68)"/>
    <path d="M330.163 314.434C330.163 313.136 330.958 311.971 332.167 311.5L560.542 222.375C562.608 221.569 564.838 223.092 564.838 225.309V253.214C564.838 254.512 564.042 255.677 562.833 256.149L334.458 345.274C332.392 346.08 330.163 344.556 330.163 342.339V314.434Z" fill="url(#paint2_linear_504_68)"/>
    <defs>
        <linearGradient id="paint0_linear_504_68" x1="330.163" y1="76.0498" x2="564.838" y2="346.95" gradientUnits="userSpaceOnUse">
            <stop stop-color="#00FFEF"/>
            <stop offset="1" stop-color="#4166F5"/>
        </linearGradient>
        <linearGradient id="paint1_linear_504_68" x1="330.163" y1="76.0498" x2="564.838" y2="346.95" gradientUnits="userSpaceOnUse">
            <stop stop-color="#00FFEF"/>
            <stop offset="1" stop-color="#4166F5"/>
        </linearGradient>
        <linearGradient id="paint2_linear_504_68" x1="330.163" y1="76.0498" x2="564.838" y2="346.95" gradientUnits="userSpaceOnUse">
            <stop stop-color="#00FFEF"/>
            <stop offset="1" stop-color="#4166F5"/>
        </linearGradient>
    </defs>
</svg>
