<svg width="1920" height="1080" viewBox="0 0 1920 1080" fill="none" xmlns="http://www.w3.org/2000/svg">
    <g clip-path="url(#clip0_716_4)">
        <rect width="1920" height="1080" rx="30" fill="#202020"/>
        <path d="M703.261 -140V90.1739C703.261 90.7262 703.708 91.1739 704.261 91.1739H969C969.552 91.1739 970 91.6216 970 92.1739V322.348" stroke="#181818" stroke-width="8"/>
        <path d="M632.13 -68.8696V161.304C632.13 161.857 632.578 162.304 633.13 162.304H897.87C898.422 162.304 898.87 162.752 898.87 163.304V393.478" stroke="#181818" stroke-width="8"/>
        <path d="M561 2.26074V232.435C561 232.987 561.448 233.435 562 233.435H826.739C827.291 233.435 827.739 233.882 827.739 234.435V464.609" stroke="#181818" stroke-width="8"/>
        <path d="M-17 989H440C440.552 989 441 989.448 441 990V1138.55" stroke="#181818" stroke-width="7"/>
        <path d="M-17 1007.69H421.306C421.858 1007.69 422.306 1008.14 422.306 1008.69V1138.55" stroke="#181818" stroke-width="7"/>
        <path d="M-17 1026.39H402.612C403.165 1026.39 403.612 1026.84 403.612 1027.39V1138.55" stroke="#181818" stroke-width="7"/>
        <path d="M-17 1045.08H383.918C384.471 1045.08 384.918 1045.53 384.918 1046.08V1138.55" stroke="#181818" stroke-width="7"/>
        <path d="M0 603H457C457.552 603 458 603.448 458 604V752.551" stroke="#181818" stroke-width="7"/>
        <path d="M0 621.694H438.306C438.858 621.694 439.306 622.142 439.306 622.694V752.551" stroke="#181818" stroke-width="7"/>
        <path d="M0 640.388H419.612C420.165 640.388 420.612 640.835 420.612 641.388V752.551" stroke="#181818" stroke-width="7"/>
        <path d="M0 659.082H400.918C401.471 659.082 401.918 659.529 401.918 660.082V752.551" stroke="#181818" stroke-width="7"/>
        <path d="M0 532H457C457.552 532 458 532.448 458 533V681.551" stroke="#181818" stroke-width="7"/>
        <path d="M0 550.694H438.306C438.858 550.694 439.306 551.142 439.306 551.694V681.551" stroke="#181818" stroke-width="7"/>
        <path d="M0 569.388H419.612C420.165 569.388 420.612 569.835 420.612 570.388V681.551" stroke="#181818" stroke-width="7"/>
        <path d="M0 588.082H400.918C401.471 588.082 401.918 588.529 401.918 589.082V681.551" stroke="#181818" stroke-width="7"/>
        <path d="M2 276H459C459.552 276 460 276.448 460 277V425.551" stroke="#181818" stroke-width="7"/>
        <path d="M2 294.694H440.306C440.858 294.694 441.306 295.142 441.306 295.694V425.551" stroke="#181818" stroke-width="7"/>
        <path d="M2 313.388H421.612C422.165 313.388 422.612 313.835 422.612 314.388V425.551" stroke="#181818" stroke-width="7"/>
        <path d="M2 332.082H402.918C403.471 332.082 403.918 332.529 403.918 333.082V425.551" stroke="#181818" stroke-width="7"/>
        <path d="M2 20H459C459.552 20 460 20.4477 460 21V169.551" stroke="#181818" stroke-width="7"/>
        <path d="M2 38.6938H440.306C440.858 38.6938 441.306 39.1416 441.306 39.6938V169.551" stroke="#181818" stroke-width="7"/>
        <path d="M2 57.3877H421.612C422.165 57.3877 422.612 57.8354 422.612 58.3877V169.551" stroke="#181818" stroke-width="7"/>
        <path d="M2 76.0815H402.918C403.471 76.0815 403.918 76.5293 403.918 77.0815V169.551" stroke="#181818" stroke-width="7"/>
        <g filter="url(#filter0_f_716_4)">
            <rect x="77" y="62" width="1030" height="1061" fill="#202020"/>
        </g>
        <path d="M118.434 344V212.388H132.347V344H118.434ZM295.689 244.351C303.711 244.351 310.668 245.918 316.559 249.051C322.575 252.059 327.213 256.697 330.472 262.964C333.856 269.232 335.549 277.128 335.549 286.655V344H322.199V287.971C322.199 277.567 319.692 269.733 314.679 264.469C309.79 259.079 302.834 256.384 293.809 256.384C287.04 256.384 281.149 257.825 276.135 260.708C271.247 263.466 267.424 267.54 264.666 272.929C262.034 278.194 260.718 284.586 260.718 292.107V344H247.368V287.971C247.368 277.567 244.862 269.733 239.848 264.469C234.834 259.079 227.815 256.384 218.79 256.384C212.146 256.384 206.318 257.825 201.304 260.708C196.29 263.466 192.405 267.54 189.647 272.929C187.015 278.194 185.699 284.586 185.699 292.107V344H172.349V245.291H185.135V271.989L183.066 267.289C186.075 260.144 190.901 254.566 197.544 250.555C204.312 246.419 212.272 244.351 221.422 244.351C231.074 244.351 239.284 246.795 246.052 251.683C252.821 256.447 257.208 263.654 259.214 273.305L253.949 271.237C256.832 263.215 261.908 256.76 269.178 251.871C276.574 246.858 285.411 244.351 295.689 244.351ZM433.608 344V322.19L433.044 318.618V282.142C433.044 273.744 430.663 267.289 425.9 262.776C421.262 258.264 414.305 256.008 405.03 256.008C398.637 256.008 392.558 257.073 386.792 259.204C381.026 261.335 376.138 264.155 372.127 267.665L366.11 257.7C371.124 253.438 377.141 250.179 384.16 247.923C391.179 245.542 398.575 244.351 406.346 244.351C419.131 244.351 428.971 247.547 435.865 253.94C442.884 260.207 446.394 269.796 446.394 282.706V344H433.608ZM399.577 344.94C392.182 344.94 385.727 343.749 380.212 341.368C374.822 338.861 370.685 335.477 367.802 331.215C364.919 326.828 363.478 321.814 363.478 316.173C363.478 311.034 364.669 306.397 367.05 302.26C369.557 297.998 373.568 294.614 379.083 292.107C384.724 289.475 392.245 288.159 401.646 288.159H435.677V298.124H402.022C392.495 298.124 385.852 299.816 382.092 303.2C378.457 306.585 376.639 310.784 376.639 315.797C376.639 321.438 378.833 325.95 383.22 329.335C387.607 332.719 393.749 334.411 401.646 334.411C409.166 334.411 415.621 332.719 421.011 329.335C426.526 325.825 430.538 320.811 433.044 314.293L436.053 323.506C433.546 330.024 429.159 335.226 422.891 339.112C416.75 342.997 408.978 344.94 399.577 344.94ZM524.768 381.415C515.743 381.415 507.094 380.099 498.821 377.467C490.548 374.835 483.842 371.075 478.703 366.186L485.472 356.033C490.11 360.169 495.813 363.428 502.581 365.81C509.475 368.317 516.745 369.57 524.391 369.57C536.926 369.57 546.139 366.625 552.03 360.734C557.921 354.968 560.867 345.943 560.867 333.659V309.029L562.747 292.107L561.431 275.186V245.291H574.216V331.967C574.216 349.014 570.017 361.486 561.619 369.382C553.346 377.404 541.062 381.415 524.768 381.415ZM522.323 340.24C512.922 340.24 504.462 338.234 496.941 334.223C489.42 330.087 483.466 324.384 479.079 317.114C474.818 309.843 472.687 301.508 472.687 292.107C472.687 282.706 474.818 274.434 479.079 267.289C483.466 260.019 489.42 254.378 496.941 250.367C504.462 246.356 512.922 244.351 522.323 244.351C531.097 244.351 538.994 246.168 546.014 249.803C553.033 253.438 558.611 258.828 562.747 265.973C566.883 273.117 568.952 281.829 568.952 292.107C568.952 302.385 566.883 311.097 562.747 318.242C558.611 325.386 553.033 330.839 546.014 334.599C538.994 338.359 531.097 340.24 522.323 340.24ZM523.639 328.395C530.909 328.395 537.365 326.89 543.005 323.882C548.646 320.749 553.095 316.487 556.354 311.097C559.613 305.582 561.243 299.252 561.243 292.107C561.243 284.963 559.613 278.695 556.354 273.305C553.095 267.916 548.646 263.717 543.005 260.708C537.365 257.575 530.909 256.008 523.639 256.008C516.495 256.008 510.04 257.575 504.274 260.708C498.633 263.717 494.183 267.916 490.924 273.305C487.791 278.695 486.224 284.963 486.224 292.107C486.224 299.252 487.791 305.582 490.924 311.097C494.183 316.487 498.633 320.749 504.274 323.882C510.04 326.89 516.495 328.395 523.639 328.395ZM611.363 344V245.291H624.712V344H611.363ZM618.131 223.481C615.374 223.481 613.055 222.541 611.175 220.661C609.295 218.78 608.355 216.524 608.355 213.892C608.355 211.26 609.295 209.066 611.175 207.311C613.055 205.431 615.374 204.491 618.131 204.491C620.889 204.491 623.208 205.368 625.088 207.123C626.968 208.878 627.908 211.072 627.908 213.704C627.908 216.462 626.968 218.78 625.088 220.661C623.333 222.541 621.014 223.481 618.131 223.481ZM712.244 244.351C720.266 244.351 727.286 245.918 733.302 249.051C739.444 252.059 744.207 256.697 747.592 262.964C751.101 269.232 752.856 277.128 752.856 286.655V344H739.507V287.971C739.507 277.567 736.875 269.733 731.61 264.469C726.471 259.079 719.201 256.384 709.8 256.384C702.781 256.384 696.639 257.825 691.374 260.708C686.235 263.466 682.224 267.54 679.341 272.929C676.584 278.194 675.205 284.586 675.205 292.107V344H661.856V245.291H674.641V272.365L672.573 267.289C675.706 260.144 680.72 254.566 687.614 250.555C694.508 246.419 702.718 244.351 712.244 244.351ZM830.842 344.94C820.564 344.94 811.539 342.809 803.768 338.547C795.996 334.16 789.917 328.207 785.53 320.686C781.143 313.04 778.949 304.328 778.949 294.551C778.949 284.775 781.018 276.126 785.154 268.605C789.416 261.084 795.182 255.193 802.452 250.931C809.847 246.544 818.12 244.351 827.27 244.351C836.545 244.351 844.756 246.482 851.9 250.743C859.17 254.88 864.873 260.771 869.01 268.417C873.146 275.938 875.214 284.649 875.214 294.551C875.214 295.178 875.152 295.868 875.026 296.62C875.026 297.246 875.026 297.936 875.026 298.688H789.102V288.723H867.882L862.617 292.671C862.617 285.527 861.05 279.197 857.917 273.681C854.909 268.041 850.772 263.654 845.508 260.52C840.243 257.387 834.164 255.82 827.27 255.82C820.501 255.82 814.422 257.387 809.032 260.52C803.642 263.654 799.443 268.041 796.435 273.681C793.427 279.322 791.923 285.777 791.923 293.047V295.115C791.923 302.636 793.552 309.279 796.811 315.045C800.195 320.686 804.833 325.136 810.724 328.395C816.741 331.528 823.572 333.095 831.218 333.095C837.235 333.095 842.813 332.03 847.952 329.899C853.216 327.768 857.729 324.509 861.489 320.122L869.01 328.771C864.623 334.035 859.108 338.046 852.464 340.804C845.946 343.561 838.739 344.94 830.842 344.94Z" fill="#616161"/>
        <path d="M118.434 607.225V475.612H175.215C189.881 475.612 201.224 478.558 209.246 484.449C217.394 490.34 221.468 498.676 221.468 509.456C221.468 516.6 219.775 522.617 216.391 527.505C213.132 532.394 208.62 536.091 202.854 538.598C197.213 541.105 191.009 542.359 184.24 542.359L187.436 537.846C195.835 537.846 203.042 539.162 209.058 541.795C215.2 544.301 219.963 548.124 223.348 553.264C226.732 558.277 228.424 564.545 228.424 572.065C228.424 583.221 224.288 591.87 216.015 598.012C207.868 604.154 195.521 607.225 178.976 607.225H118.434ZM132.347 595.756H178.788C190.319 595.756 199.156 593.813 205.298 589.927C211.44 585.916 214.511 579.586 214.511 570.937C214.511 562.414 211.44 556.209 205.298 552.324C199.156 548.312 190.319 546.307 178.788 546.307H130.843V534.838H174.275C184.804 534.838 192.952 532.832 198.717 528.821C204.609 524.81 207.554 518.856 207.554 510.96C207.554 502.938 204.609 496.984 198.717 493.098C192.952 489.087 184.804 487.081 174.275 487.081H132.347V595.756ZM298.161 608.165C289.763 608.165 282.43 606.598 276.163 603.464C269.896 600.331 265.007 595.63 261.498 589.363C258.113 583.096 256.421 575.262 256.421 565.861V508.515H269.77V564.357C269.77 574.886 272.34 582.845 277.479 588.235C282.744 593.499 290.076 596.132 299.477 596.132C306.371 596.132 312.325 594.753 317.339 591.995C322.478 589.112 326.364 584.976 328.996 579.586C331.753 574.196 333.132 567.741 333.132 560.22V508.515H346.482V607.225H333.696V580.15L335.765 585.039C332.631 592.309 327.742 598.012 321.099 602.148C314.581 606.159 306.935 608.165 298.161 608.165ZM383.685 607.225V508.515H397.035V607.225H383.685ZM390.454 486.705C387.696 486.705 385.378 485.765 383.497 483.885C381.617 482.005 380.677 479.749 380.677 477.117C380.677 474.484 381.617 472.291 383.497 470.536C385.378 468.656 387.696 467.716 390.454 467.716C393.212 467.716 395.531 468.593 397.411 470.348C399.291 472.103 400.231 474.296 400.231 476.929C400.231 479.686 399.291 482.005 397.411 483.885C395.656 485.765 393.337 486.705 390.454 486.705ZM434.178 607.225V467.716H447.528V607.225H434.178ZM523.967 608.165C514.566 608.165 506.105 606.034 498.585 601.772C491.189 597.51 485.361 591.619 481.099 584.098C476.837 576.452 474.706 567.678 474.706 557.776C474.706 547.748 476.837 538.974 481.099 531.454C485.361 523.933 491.189 518.104 498.585 513.968C506.105 509.706 514.566 507.575 523.967 507.575C532.616 507.575 540.325 509.518 547.093 513.404C553.987 517.29 559.44 522.993 563.451 530.513C567.587 537.909 569.655 546.996 569.655 557.776C569.655 568.43 567.65 577.518 563.639 585.039C559.628 592.559 554.175 598.325 547.281 602.336C540.513 606.222 532.741 608.165 523.967 608.165ZM524.907 596.32C531.926 596.32 538.194 594.753 543.709 591.619C549.349 588.36 553.736 583.848 556.87 578.082C560.129 572.191 561.759 565.422 561.759 557.776C561.759 550.005 560.129 543.236 556.87 537.47C553.736 531.704 549.349 527.255 543.709 524.121C538.194 520.862 531.926 519.232 524.907 519.232C518.013 519.232 511.809 520.862 506.293 524.121C500.778 527.255 496.391 531.704 493.132 537.47C489.873 543.236 488.244 550.005 488.244 557.776C488.244 565.422 489.873 572.191 493.132 578.082C496.391 583.848 500.778 588.36 506.293 591.619C511.809 594.753 518.013 596.32 524.907 596.32ZM562.135 607.225V577.518L563.451 557.588L561.571 537.658V467.716H574.92V607.225H562.135Z" fill="#616161"/>
        <path d="M118.434 870.449V738.837H167.695C178.85 738.837 188.439 740.654 196.461 744.289C204.483 747.799 210.625 752.938 214.887 759.706C219.274 766.35 221.468 774.434 221.468 783.961C221.468 793.236 219.274 801.258 214.887 808.027C210.625 814.67 204.483 819.809 196.461 823.444C188.439 826.954 178.85 828.709 167.695 828.709H126.143L132.347 822.316V870.449H118.434ZM208.306 870.449L174.463 822.692H189.505L223.536 870.449H208.306ZM132.347 823.444L126.143 816.864H167.319C180.48 816.864 190.445 813.981 197.213 808.215C204.107 802.449 207.554 794.364 207.554 783.961C207.554 773.432 204.107 765.284 197.213 759.518C190.445 753.753 180.48 750.87 167.319 750.87H126.143L132.347 744.289V823.444ZM293.414 871.389C283.135 871.389 274.11 869.258 266.339 864.996C258.568 860.609 252.488 854.655 248.101 847.135C243.714 839.489 241.521 830.777 241.521 821C241.521 811.223 243.589 802.574 247.725 795.054C251.987 787.533 257.753 781.642 265.023 777.38C272.418 772.993 280.691 770.799 289.841 770.799C299.117 770.799 307.327 772.93 314.472 777.192C321.742 781.328 327.445 787.22 331.581 794.866C335.718 802.386 337.786 811.098 337.786 821C337.786 821.627 337.723 822.316 337.598 823.068C337.598 823.695 337.598 824.384 337.598 825.137H251.674V815.172H330.453L325.189 819.12C325.189 811.975 323.622 805.645 320.488 800.13C317.48 794.49 313.343 790.103 308.079 786.969C302.814 783.835 296.735 782.269 289.841 782.269C283.073 782.269 276.993 783.835 271.604 786.969C266.214 790.103 262.015 794.49 259.006 800.13C255.998 805.771 254.494 812.226 254.494 819.496V821.564C254.494 829.085 256.123 835.728 259.382 841.494C262.767 847.135 267.404 851.584 273.296 854.843C279.312 857.977 286.144 859.544 293.79 859.544C299.806 859.544 305.384 858.478 310.523 856.347C315.788 854.217 320.3 850.958 324.06 846.571L331.581 855.219C327.194 860.484 321.679 864.495 315.036 867.252C308.518 870.01 301.31 871.389 293.414 871.389ZM364.957 870.449V730.94H378.306V870.449H364.957ZM457.378 871.389C447.1 871.389 438.075 869.258 430.303 864.996C422.532 860.609 416.453 854.655 412.066 847.135C407.679 839.489 405.485 830.777 405.485 821C405.485 811.223 407.553 802.574 411.69 795.054C415.951 787.533 421.717 781.642 428.987 777.38C436.383 772.993 444.655 770.799 453.806 770.799C463.081 770.799 471.291 772.93 478.436 777.192C485.706 781.328 491.409 787.22 495.546 794.866C499.682 802.386 501.75 811.098 501.75 821C501.75 821.627 501.687 822.316 501.562 823.068C501.562 823.695 501.562 824.384 501.562 825.137H415.638V815.172H494.417L489.153 819.12C489.153 811.975 487.586 805.645 484.452 800.13C481.444 794.49 477.308 790.103 472.043 786.969C466.779 783.835 460.7 782.269 453.806 782.269C447.037 782.269 440.958 783.835 435.568 786.969C430.178 790.103 425.979 794.49 422.971 800.13C419.963 805.771 418.458 812.226 418.458 819.496V821.564C418.458 829.085 420.088 835.728 423.347 841.494C426.731 847.135 431.369 851.584 437.26 854.843C443.277 857.977 450.108 859.544 457.754 859.544C463.771 859.544 469.348 858.478 474.488 856.347C479.752 854.217 484.264 850.958 488.025 846.571L495.546 855.219C491.158 860.484 485.643 864.495 479 867.252C472.482 870.01 465.275 871.389 457.378 871.389ZM588.025 870.449V848.639L587.461 845.066V808.591C587.461 800.193 585.08 793.738 580.316 789.225C575.679 784.713 568.722 782.457 559.446 782.457C553.054 782.457 546.975 783.522 541.209 785.653C535.443 787.784 530.554 790.604 526.543 794.114L520.527 784.149C525.541 779.887 531.557 776.628 538.577 774.372C545.596 771.99 552.991 770.799 560.763 770.799C573.548 770.799 583.387 773.996 590.281 780.388C597.301 786.656 600.81 796.245 600.81 809.155V870.449H588.025ZM553.994 871.389C546.599 871.389 540.143 870.198 534.628 867.816C529.238 865.31 525.102 861.925 522.219 857.664C519.336 853.276 517.895 848.263 517.895 842.622C517.895 837.483 519.085 832.845 521.467 828.709C523.974 824.447 527.985 821.063 533.5 818.556C539.141 815.924 546.661 814.608 556.062 814.608H590.093V824.572H556.438C546.912 824.572 540.269 826.265 536.508 829.649C532.873 833.033 531.056 837.232 531.056 842.246C531.056 847.887 533.249 852.399 537.636 855.783C542.024 859.168 548.165 860.86 556.062 860.86C563.583 860.86 570.038 859.168 575.428 855.783C580.943 852.274 584.954 847.26 587.461 840.742L590.469 849.955C587.962 856.473 583.575 861.675 577.308 865.56C571.166 869.446 563.395 871.389 553.994 871.389ZM663.579 871.389C655.431 871.389 647.723 870.261 640.453 868.005C633.183 865.623 627.479 862.677 623.343 859.168L629.36 848.639C633.371 851.647 638.51 854.279 644.777 856.535C651.044 858.666 657.625 859.732 664.519 859.732C673.92 859.732 680.688 858.29 684.825 855.407C688.961 852.399 691.029 848.451 691.029 843.562C691.029 839.927 689.839 837.107 687.457 835.101C685.201 832.971 682.192 831.404 678.432 830.401C674.672 829.273 670.473 828.333 665.835 827.581C661.197 826.829 656.559 825.951 651.922 824.949C647.409 823.946 643.273 822.504 639.513 820.624C635.752 818.619 632.681 815.924 630.3 812.539C628.043 809.155 626.915 804.643 626.915 799.002C626.915 793.612 628.42 788.786 631.428 784.525C634.436 780.263 638.823 776.941 644.589 774.56C650.48 772.053 657.625 770.799 666.023 770.799C672.416 770.799 678.808 771.677 685.201 773.432C691.593 775.061 696.858 777.255 700.994 780.012L695.166 790.729C690.779 787.721 686.078 785.59 681.064 784.337C676.051 782.958 671.037 782.269 666.023 782.269C657.124 782.269 650.543 783.835 646.281 786.969C642.145 789.977 640.077 793.863 640.077 798.626C640.077 802.386 641.205 805.332 643.461 807.463C645.842 809.594 648.913 811.286 652.674 812.539C656.559 813.667 660.759 814.608 665.271 815.36C669.909 816.112 674.484 817.052 678.996 818.18C683.634 819.183 687.833 820.624 691.593 822.504C695.479 824.259 698.55 826.829 700.806 830.213C703.188 833.472 704.379 837.796 704.379 843.186C704.379 848.952 702.749 853.966 699.49 858.228C696.356 862.364 691.719 865.623 685.577 868.005C679.56 870.261 672.228 871.389 663.579 871.389ZM770.802 871.389C760.523 871.389 751.498 869.258 743.727 864.996C735.956 860.609 729.876 854.655 725.489 847.135C721.102 839.489 718.909 830.777 718.909 821C718.909 811.223 720.977 802.574 725.113 795.054C729.375 787.533 735.141 781.642 742.411 777.38C749.806 772.993 758.079 770.799 767.229 770.799C776.505 770.799 784.715 772.93 791.86 777.192C799.13 781.328 804.833 787.22 808.969 794.866C813.105 802.386 815.174 811.098 815.174 821C815.174 821.627 815.111 822.316 814.986 823.068C814.986 823.695 814.986 824.384 814.986 825.137H729.062V815.172H807.841L802.577 819.12C802.577 811.975 801.01 805.645 797.876 800.13C794.868 794.49 790.731 790.103 785.467 786.969C780.202 783.835 774.123 782.269 767.229 782.269C760.461 782.269 754.381 783.835 748.992 786.969C743.602 790.103 739.403 794.49 736.394 800.13C733.386 805.771 731.882 812.226 731.882 819.496V821.564C731.882 829.085 733.511 835.728 736.77 841.494C740.155 847.135 744.792 851.584 750.684 854.843C756.7 857.977 763.532 859.544 771.178 859.544C777.194 859.544 782.772 858.478 787.911 856.347C793.176 854.217 797.688 850.958 801.448 846.571L808.969 855.219C804.582 860.484 799.067 864.495 792.424 867.252C785.906 870.01 778.698 871.389 770.802 871.389Z" fill="#FF556E"/>
        <path d="M1167.25 440.601C1167.25 438.128 1168.76 435.908 1171.06 435.009L1605.33 265.166C1609.26 263.63 1613.5 266.533 1613.5 270.759V323.937C1613.5 326.41 1611.99 328.63 1609.69 329.529L1175.42 499.372C1171.49 500.908 1167.25 498.005 1167.25 493.779V440.601Z" fill="#FF556E"/>
        <path d="M1167.25 580.435C1167.25 577.959 1168.77 575.737 1171.07 574.835L1381.25 492.744C1385.19 491.206 1389.44 494.112 1389.44 498.343V551.584C1389.44 554.06 1387.92 556.282 1385.62 557.182L1175.44 639.275C1171.5 640.814 1167.25 637.906 1167.25 633.677V580.435Z" fill="#FF556E"/>
        <path d="M1167.25 714.813C1167.25 712.34 1168.76 710.121 1171.06 709.222L1605.33 539.378C1609.26 537.842 1613.5 540.745 1613.5 544.971V598.149C1613.5 600.622 1611.99 602.842 1609.69 603.741L1175.42 773.583C1171.49 775.12 1167.25 772.217 1167.25 767.991V714.813Z" fill="#FF556E"/>
    </g>
    <defs>
        <filter id="filter0_f_716_4" x="-94" y="-109" width="1372" height="1403" filterUnits="userSpaceOnUse" color-interpolation-filters="sRGB">
            <feFlood flood-opacity="0" result="BackgroundImageFix"/>
            <feBlend mode="normal" in="SourceGraphic" in2="BackgroundImageFix" result="shape"/>
            <feGaussianBlur stdDeviation="85.5" result="effect1_foregroundBlur_716_4"/>
        </filter>
        <clipPath id="clip0_716_4">
            <rect width="1920" height="1080" rx="30" fill="white"/>
        </clipPath>
    </defs>
</svg>
