<svg width="300" height="300" viewBox="0 0 300 300" fill="none" xmlns="http://www.w3.org/2000/svg">
<path d="M23 105.486C23 104.073 23.8648 102.805 25.1785 102.291L273.333 5.23796C275.577 4.36026 278 6.01911 278 8.43347V38.821C278 40.2341 277.135 41.5027 275.821 42.0165L27.6672 139.07C25.4228 139.947 23 138.289 23 135.874V105.486Z" fill="white"/>
<path d="M23 185.392C23 183.977 23.867 182.707 25.184 182.192L145.287 135.282C147.537 134.403 149.967 136.064 149.967 138.481V168.905C149.967 170.32 149.099 171.59 147.782 172.104L27.679 219.014C25.429 219.894 23 218.232 23 215.815V185.392Z" fill="white"/>
<path d="M23 262.179C23 260.766 23.8648 259.498 25.1785 258.984L273.333 161.93C275.577 161.053 278 162.711 278 165.126V195.514C278 196.927 277.135 198.195 275.821 198.709L27.6672 295.762C25.4228 296.64 23 294.981 23 292.567V262.179Z" fill="white"/>
</svg>
