<svg width="1920" height="1080" viewBox="0 0 1920 1080" fill="none" xmlns="http://www.w3.org/2000/svg">
    <g clip-path="url(#clip0_716_47)">
        <rect width="1920" height="1080" rx="30" fill="#202020"/>
        <rect x="810" y="390" width="300" height="300" rx="36" fill="#181818"/>
        <rect x="783.5" y="363.5" width="355" height="355" rx="43.5" stroke="#FF556E" stroke-width="15"/>
        <path d="M883.03 513.347C883.03 512.484 883.558 511.711 884.359 511.397L1035.73 452.195C1037.1 451.66 1038.58 452.671 1038.58 454.144V472.681C1038.58 473.543 1038.05 474.316 1037.25 474.63L885.877 533.832C884.508 534.368 883.03 533.356 883.03 531.883V513.347Z" fill="#FF556E"/>
        <path d="M883.03 562.089C883.03 561.226 883.559 560.451 884.362 560.137L957.625 531.522C958.998 530.986 960.48 531.999 960.48 533.474V552.032C960.48 552.895 959.951 553.67 959.147 553.983L885.884 582.599C884.512 583.135 883.03 582.121 883.03 580.647V562.089Z" fill="#FF556E"/>
        <path d="M883.03 608.929C883.03 608.067 883.558 607.293 884.359 606.98L1035.73 547.777C1037.1 547.242 1038.58 548.254 1038.58 549.727V568.263C1038.58 569.125 1038.05 569.899 1037.25 570.212L885.877 629.415C884.508 629.95 883.03 628.938 883.03 627.465V608.929Z" fill="#FF556E"/>
        <rect x="955" width="11" height="351" fill="#181818"/>
        <rect x="975" width="11" height="351" fill="#181818"/>
        <rect x="995" width="11" height="351" fill="#181818"/>
        <rect x="935" width="11" height="351" fill="#181818"/>
        <rect x="915" width="11" height="351" fill="#181818"/>
        <rect x="955" y="731" width="11" height="351" fill="#181818"/>
        <rect x="975" y="731" width="11" height="351" fill="#181818"/>
        <rect x="995" y="731" width="11" height="351" fill="#181818"/>
        <rect x="935" y="731" width="11" height="351" fill="#181818"/>
        <rect x="915" y="731" width="11" height="351" fill="#181818"/>
        <rect x="77" y="79" width="215" height="214" rx="10" fill="#181818"/>
        <rect x="77" y="426" width="215" height="214" rx="10" fill="#181818"/>
        <rect x="77" y="773" width="215" height="214" rx="10" fill="#181818"/>
        <rect x="89" y="94" width="189" height="50" rx="3" fill="#202020"/>
        <rect x="89" y="94" width="189" height="50" rx="3" fill="#202020"/>
        <rect x="89" y="94" width="189" height="50" rx="3" fill="#202020"/>
        <rect x="89" y="94" width="189" height="50" rx="3" fill="#202020"/>
        <rect x="89" y="229" width="189" height="50" rx="3" fill="#202020"/>
        <rect x="89" y="229" width="189" height="50" rx="3" fill="#202020"/>
        <rect x="89" y="229" width="189" height="50" rx="3" fill="#202020"/>
        <rect x="89" y="229" width="189" height="50" rx="3" fill="#202020"/>
        <rect x="90" y="161" width="189" height="50" rx="3" fill="#202020"/>
        <rect x="90" y="161" width="189" height="50" rx="3" fill="#202020"/>
        <rect x="90" y="161" width="189" height="50" rx="3" fill="#202020"/>
        <rect x="90" y="161" width="189" height="50" rx="3" fill="#202020"/>
        <path d="M111.723 244.229L97.5119 220.103L107.335 214.318C109.908 212.802 112.464 211.992 115.003 211.889C117.552 211.75 119.901 212.27 122.05 213.449C124.199 214.628 125.97 216.401 127.364 218.767C128.759 221.134 129.45 223.543 129.44 225.994C129.429 228.445 128.751 230.763 127.408 232.948C126.073 235.095 124.119 236.927 121.546 238.443L111.723 244.229ZM112.974 240.521L120.108 236.319C122.245 235.06 123.851 233.557 124.926 231.809C126.011 230.025 126.557 228.141 126.564 226.156C126.557 224.148 125.985 222.179 124.849 220.249C123.698 218.296 122.253 216.842 120.514 215.885C118.775 214.929 116.869 214.504 114.796 214.611C112.733 214.681 110.633 215.346 108.496 216.605L101.362 220.807L112.974 240.521ZM151.019 221.082L148.664 217.084L148.175 216.49L144.237 209.804C143.33 208.264 142.196 207.338 140.836 207.025C139.499 206.699 137.98 207.036 136.279 208.038C135.108 208.728 134.108 209.58 133.281 210.593C132.455 211.606 131.863 212.651 131.507 213.728L129.328 212.551C129.787 211.228 130.538 209.981 131.581 208.809C132.61 207.615 133.837 206.598 135.262 205.759C137.606 204.379 139.754 203.902 141.708 204.329C143.672 204.72 145.351 206.099 146.745 208.466L153.363 219.701L151.019 221.082ZM144.883 224.929C143.527 225.727 142.215 226.206 140.947 226.365C139.688 226.487 138.565 226.314 137.576 225.844C136.574 225.351 135.768 224.587 135.159 223.553C134.604 222.611 134.322 221.633 134.312 220.617C134.311 219.565 134.681 218.512 135.421 217.457C136.171 216.365 137.407 215.312 139.131 214.297L145.369 210.622L146.445 212.449L140.276 216.083C138.529 217.112 137.494 218.139 137.17 219.166C136.869 220.178 136.99 221.144 137.531 222.063C138.14 223.097 139.029 223.688 140.199 223.834C141.369 223.981 142.677 223.628 144.125 222.775C145.503 221.963 146.504 220.956 147.127 219.754C147.759 218.515 147.952 217.163 147.708 215.697L149.254 217.061C149.499 218.527 149.256 219.954 148.527 221.343C147.821 222.718 146.606 223.914 144.883 224.929ZM165.832 212.589C164.132 213.59 162.551 213.902 161.091 213.524C159.63 213.147 158.406 212.119 157.418 210.442L147.41 193.451L149.857 192.009L159.784 208.863C160.407 209.92 161.151 210.58 162.018 210.843C162.908 211.092 163.858 210.919 164.869 210.324C165.949 209.688 166.663 208.85 167.009 207.81L168.906 209.06C168.681 209.781 168.285 210.448 167.717 211.06C167.173 211.66 166.544 212.169 165.832 212.589ZM147.723 201.39L146.525 199.357L157.726 192.759L158.924 194.792L147.723 201.39ZM185.35 200.86L182.995 196.862L182.506 196.268L178.567 189.582C177.66 188.042 176.527 187.116 175.166 186.803C173.829 186.477 172.31 186.814 170.61 187.816C169.438 188.506 168.439 189.358 167.612 190.371C166.785 191.384 166.194 192.429 165.837 193.505L163.658 192.328C164.117 191.006 164.868 189.759 165.911 188.587C166.941 187.393 168.168 186.376 169.593 185.537C171.936 184.156 174.085 183.68 176.039 184.107C178.002 184.498 179.681 185.877 181.075 188.243L187.693 199.479L185.35 200.86ZM179.213 204.707C177.857 205.505 176.546 205.984 175.277 206.143C174.019 206.265 172.895 206.091 171.906 205.622C170.904 205.129 170.099 204.365 169.49 203.331C168.935 202.389 168.652 201.41 168.642 200.395C168.642 199.343 169.011 198.29 169.752 197.235C170.501 196.143 171.738 195.09 173.461 194.075L179.699 190.4L180.775 192.227L174.606 195.861C172.86 196.889 171.825 197.917 171.501 198.943C171.2 199.956 171.32 200.922 171.862 201.841C172.471 202.875 173.36 203.465 174.53 203.612C175.699 203.759 177.008 203.406 178.455 202.553C179.834 201.741 180.835 200.734 181.457 199.532C182.089 198.293 182.283 196.941 182.039 195.475L183.585 196.839C183.829 198.304 183.587 199.732 182.857 201.121C182.151 202.496 180.936 203.691 179.213 204.707ZM203.781 190.235C202.196 191.169 200.562 191.652 198.878 191.684C197.182 191.693 195.559 191.225 194.012 190.279C192.465 189.334 191.116 187.884 189.966 185.931C188.802 183.955 188.188 182.073 188.125 180.284C188.071 178.459 188.466 176.818 189.31 175.361C190.154 173.905 191.358 172.716 192.92 171.796C194.643 170.781 196.413 170.265 198.229 170.247C200.054 170.193 201.763 170.626 203.356 171.544C204.95 172.463 206.288 173.841 207.37 175.679C208.44 177.494 208.996 179.333 209.041 181.194C209.072 183.033 208.628 184.749 207.709 186.342C206.814 187.922 205.505 189.22 203.781 190.235ZM194.34 195.564L179.276 169.991L181.723 168.55L189.275 181.371L191.083 185.227L193.476 188.738L196.683 194.184L194.34 195.564ZM202.33 188.165C203.617 187.407 204.596 186.443 205.269 185.273C205.928 184.08 206.245 182.779 206.22 181.371C206.181 179.939 205.749 178.522 204.923 177.12C204.084 175.696 203.055 174.631 201.835 173.926C200.615 173.221 199.33 172.879 197.981 172.9C196.618 172.898 195.293 173.276 194.006 174.034C192.72 174.792 191.735 175.774 191.053 176.981C190.381 178.151 190.057 179.44 190.082 180.849C190.13 182.244 190.574 183.654 191.413 185.079C192.239 186.48 193.257 187.552 194.467 188.293C195.687 188.998 196.979 189.352 198.342 189.354C199.714 189.319 201.043 188.923 202.33 188.165ZM228.936 175.185L226.581 171.187L226.092 170.593L222.153 163.907C221.247 162.368 220.113 161.442 218.753 161.129C217.415 160.802 215.897 161.14 214.196 162.141C213.024 162.832 212.025 163.683 211.198 164.697C210.371 165.71 209.78 166.755 209.424 167.831L207.245 166.654C207.704 165.331 208.455 164.084 209.498 162.913C210.527 161.718 211.754 160.702 213.179 159.863C215.522 158.482 217.671 158.005 219.625 158.433C221.589 158.824 223.267 160.203 224.661 162.569L231.28 173.805L228.936 175.185ZM222.799 179.032C221.444 179.831 220.132 180.31 218.864 180.468C217.605 180.591 216.481 180.417 215.493 179.947C214.491 179.454 213.685 178.691 213.076 177.657C212.521 176.715 212.239 175.736 212.228 174.721C212.228 173.669 212.598 172.615 213.338 171.56C214.088 170.469 215.324 169.416 217.047 168.4L223.286 164.726L224.362 166.553L218.192 170.186C216.446 171.215 215.411 172.243 215.087 173.269C214.786 174.282 214.907 175.248 215.448 176.167C216.057 177.201 216.946 177.791 218.116 177.938C219.286 178.085 220.594 177.732 222.042 176.879C223.42 176.067 224.421 175.06 225.043 173.857C225.675 172.618 225.869 171.266 225.625 169.801L227.171 171.165C227.416 172.63 227.173 174.057 226.444 175.446C225.737 176.822 224.523 178.017 222.799 179.032ZM242.887 167.2C241.394 168.079 239.859 168.705 238.283 169.076C236.693 169.425 235.329 169.501 234.192 169.304L234.158 166.724C235.218 166.843 236.444 166.77 237.837 166.507C239.216 166.221 240.537 165.706 241.801 164.961C243.524 163.946 244.609 162.951 245.056 161.976C245.49 160.978 245.442 160.031 244.914 159.135C244.522 158.468 243.999 158.08 243.346 157.97C242.702 157.823 241.982 157.86 241.184 158.082C240.373 158.282 239.502 158.563 238.571 158.926C237.639 159.289 236.694 159.628 235.736 159.945C234.8 160.249 233.887 160.431 232.994 160.493C232.088 160.531 231.234 160.369 230.432 160.005C229.653 159.629 228.959 158.923 228.35 157.889C227.768 156.901 227.523 155.854 227.614 154.748C227.706 153.642 228.151 152.56 228.951 151.501C229.76 150.405 230.934 149.404 232.474 148.497C233.646 147.807 234.912 147.277 236.274 146.909C237.621 146.517 238.823 146.351 239.879 146.41L239.968 149.003C238.839 148.926 237.747 149.043 236.693 149.354C235.625 149.643 234.631 150.058 233.712 150.599C232.081 151.56 231.044 152.558 230.601 153.592C230.168 154.591 230.208 155.526 230.722 156.399C231.128 157.089 231.653 157.507 232.297 157.654C232.964 157.787 233.709 157.766 234.534 157.59C235.368 157.377 236.239 157.096 237.148 156.746C238.079 156.383 239.019 156.062 239.968 155.781C240.926 155.464 241.852 155.275 242.744 155.214C243.646 155.116 244.486 155.255 245.265 155.632C246.054 155.972 246.739 156.636 247.321 157.624C247.943 158.681 248.186 159.776 248.049 160.909C247.921 162.006 247.423 163.104 246.554 164.204C245.695 165.267 244.473 166.266 242.887 167.2ZM262.542 155.622C260.658 156.732 258.774 157.316 256.889 157.374C254.991 157.409 253.233 156.974 251.617 156.069C249.987 155.141 248.645 153.781 247.589 151.989C246.533 150.196 245.978 148.388 245.925 146.562C245.894 144.724 246.315 143.021 247.187 141.455C248.069 139.852 249.349 138.557 251.026 137.569C252.726 136.567 254.461 136.071 256.231 136.081C258.01 136.054 259.692 136.519 261.276 137.473C262.846 138.405 264.166 139.779 265.235 141.594C265.303 141.709 265.366 141.842 265.424 141.994C265.492 142.109 265.566 142.235 265.647 142.373L249.897 151.651L248.821 149.824L263.262 141.318L262.723 142.61C261.951 141.3 260.981 140.309 259.811 139.636C258.65 138.927 257.418 138.57 256.115 138.564C254.812 138.558 253.528 138.927 252.264 139.671C251.024 140.402 250.078 141.346 249.429 142.502C248.779 143.659 248.483 144.916 248.541 146.275C248.598 147.634 249.02 148.979 249.805 150.312L250.028 150.691C250.84 152.07 251.856 153.112 253.076 153.817C254.305 154.485 255.636 154.8 257.068 154.761C258.509 154.686 259.93 154.236 261.332 153.41C262.435 152.76 263.342 151.963 264.054 151.017C264.789 150.058 265.264 148.974 265.48 147.763L267.793 148.537C267.557 149.976 266.979 151.306 266.059 152.529C265.162 153.738 263.99 154.769 262.542 155.622Z" fill="#FF556E"/>
        <path d="M160.863 560.091L157.681 529.469L160.197 527.987L185.437 545.616L182.748 547.199L159.277 530.524L160.311 529.915L163.517 558.528L160.863 560.091ZM161.409 551.088L160.949 548.573L174.977 540.311L176.953 541.932L161.409 551.088ZM189.428 543.265L175.216 519.139L184.246 513.82C186.291 512.616 188.245 511.914 190.108 511.714C191.958 511.491 193.639 511.77 195.151 512.55C196.672 513.294 197.947 514.539 198.976 516.286C199.977 517.986 200.441 519.693 200.368 521.408C200.304 523.086 199.733 524.691 198.655 526.223C197.577 527.756 196.016 529.125 193.971 530.329L186.354 534.816L186.781 532.94L191.978 541.763L189.428 543.265ZM186.903 533.146L185.034 532.576L192.582 528.129C194.995 526.708 196.517 525.115 197.149 523.351C197.79 521.549 197.549 519.695 196.425 517.788C195.288 515.858 193.777 514.737 191.891 514.424C190.027 514.098 187.889 514.646 185.477 516.067L177.929 520.513L178.356 518.636L186.903 533.146ZM213.829 528.891L199.618 504.766L202.169 503.263L216.38 527.389L213.829 528.891Z" fill="#FF556E"/>
        <path d="M118.723 935.631L104.512 911.505L114.92 905.374C117.609 903.791 120.006 903.106 122.113 903.32C124.242 903.52 125.889 904.608 127.053 906.584C127.825 907.894 128.164 909.179 128.072 910.441C128.002 911.689 127.574 912.854 126.788 913.936C126.025 915.004 125.023 915.904 123.782 916.635L123.88 915.463C125.42 914.556 126.883 914.019 128.27 913.852C129.667 913.648 130.953 913.835 132.128 914.411C133.29 914.965 134.277 915.931 135.089 917.31C136.293 919.355 136.469 921.387 135.616 923.406C134.785 925.411 132.854 927.307 129.821 929.094L118.723 935.631ZM120.035 932.026L128.548 927.012C130.662 925.767 132.072 924.456 132.778 923.081C133.471 921.682 133.35 920.19 132.417 918.605C131.496 917.043 130.263 916.237 128.718 916.188C127.159 916.116 125.323 916.702 123.209 917.947L114.42 923.124L113.182 921.022L121.143 916.332C123.073 915.195 124.35 913.948 124.974 912.59C125.621 911.219 125.518 909.809 124.665 908.362C123.799 906.891 122.616 906.118 121.117 906.042C119.627 905.929 117.917 906.441 115.986 907.578L108.301 912.105L120.035 932.026ZM155.529 913.951L153.174 909.953L152.684 909.359L148.746 902.673C147.839 901.133 146.706 900.207 145.345 899.894C144.008 899.568 142.489 899.905 140.789 900.907C139.617 901.597 138.618 902.449 137.791 903.462C136.964 904.475 136.372 905.52 136.016 906.597L133.837 905.42C134.296 904.097 135.047 902.85 136.09 901.678C137.12 900.484 138.347 899.467 139.771 898.628C142.115 897.248 144.264 896.771 146.218 897.198C148.181 897.589 149.86 898.968 151.254 901.335L157.872 912.57L155.529 913.951ZM149.392 917.798C148.036 918.596 146.724 919.075 145.456 919.234C144.198 919.356 143.074 919.183 142.085 918.713C141.083 918.22 140.278 917.456 139.668 916.422C139.114 915.48 138.831 914.502 138.821 913.486C138.82 912.434 139.19 911.381 139.93 910.326C140.68 909.234 141.917 908.181 143.64 907.166L149.878 903.491L150.954 905.318L144.785 908.952C143.039 909.981 142.004 911.008 141.68 912.035C141.379 913.047 141.499 914.013 142.04 914.932C142.649 915.966 143.539 916.557 144.708 916.703C145.878 916.85 147.187 916.497 148.634 915.644C150.013 914.832 151.013 913.825 151.636 912.623C152.268 911.384 152.462 910.032 152.218 908.566L153.764 909.93C154.008 911.396 153.766 912.823 153.036 914.212C152.33 915.587 151.115 916.783 149.392 917.798ZM172.134 904.402C170.341 905.458 168.503 906.014 166.618 906.072C164.743 906.094 162.997 905.652 161.381 904.747C159.751 903.819 158.408 902.459 157.353 900.667C156.283 898.852 155.745 897.018 155.737 895.166C155.729 893.313 156.196 891.584 157.137 889.977C158.102 888.357 159.48 887.019 161.272 885.963C162.812 885.056 164.378 884.536 165.97 884.403C167.563 884.269 169.067 884.59 170.483 885.365L169.388 887.682C168.226 887.128 167.057 886.904 165.881 887.009C164.704 887.114 163.576 887.484 162.496 888.12C161.21 888.878 160.225 889.86 159.543 891.067C158.848 892.25 158.512 893.546 158.538 894.955C158.563 896.364 158.995 897.781 159.834 899.205C160.673 900.63 161.703 901.695 162.923 902.4C164.143 903.105 165.446 903.451 166.832 903.44C168.204 903.405 169.533 903.009 170.82 902.251C171.9 901.615 172.771 900.808 173.433 899.83C174.095 898.852 174.472 897.732 174.564 896.471L177.122 896.635C177.1 898.227 176.651 899.698 175.776 901.049C174.887 902.378 173.673 903.495 172.134 904.402ZM182.839 891.55L181.06 888.373L186.28 871.464L189.279 869.698L185.804 882.004L185.116 883.988L182.839 891.55ZM183.67 897.374L168.606 871.801L171.053 870.36L186.117 895.933L183.67 897.374ZM197.697 889.112L184.607 884.149L185.076 881.319L200.695 887.346L197.697 889.112ZM211.449 881.243C209.565 882.353 207.681 882.937 205.796 882.995C203.898 883.03 202.141 882.595 200.524 881.69C198.895 880.762 197.552 879.402 196.496 877.61C195.441 875.817 194.886 874.009 194.832 872.183C194.801 870.345 195.222 868.642 196.094 867.076C196.976 865.473 198.256 864.178 199.933 863.19C201.634 862.188 203.369 861.693 205.138 861.702C206.918 861.675 208.599 862.14 210.183 863.095C211.753 864.027 213.073 865.4 214.142 867.215C214.21 867.33 214.273 867.463 214.331 867.615C214.399 867.73 214.473 867.856 214.555 867.994L198.804 877.272L197.728 875.445L212.169 866.939L211.63 868.231C210.859 866.921 209.888 865.93 208.718 865.257C207.558 864.548 206.326 864.191 205.022 864.185C203.719 864.179 202.435 864.548 201.172 865.292C199.931 866.023 198.986 866.967 198.336 868.123C197.686 869.28 197.39 870.537 197.448 871.896C197.506 873.255 197.927 874.6 198.712 875.933L198.935 876.312C199.747 877.691 200.763 878.733 201.983 879.438C203.213 880.106 204.543 880.421 205.975 880.382C207.416 880.307 208.838 879.857 210.239 879.031C211.342 878.382 212.25 877.584 212.962 876.638C213.697 875.679 214.172 874.595 214.387 873.385L216.7 874.158C216.464 875.597 215.886 876.927 214.966 878.15C214.069 879.359 212.897 880.39 211.449 881.243ZM222.939 849.638C224.41 848.772 225.866 848.301 227.307 848.226C228.758 848.114 230.131 848.45 231.429 849.234C232.749 850.004 233.923 851.262 234.952 853.008L241.144 863.52L238.697 864.961L232.647 854.691C231.523 852.783 230.195 851.632 228.661 851.235C227.137 850.802 225.514 851.093 223.791 852.108C222.504 852.866 221.534 853.793 220.88 854.89C220.236 855.951 219.94 857.131 219.994 858.43C220.057 859.693 220.494 861.013 221.306 862.392L226.909 871.904L224.462 873.346L213.804 855.251L216.148 853.871L219.071 858.834L218.144 858.127C217.947 856.479 218.264 854.915 219.094 853.435C219.911 851.933 221.193 850.667 222.939 849.638ZM255.058 855.556C253.335 856.571 251.554 857.094 249.715 857.124C247.899 857.142 246.195 856.691 244.601 855.773C242.995 854.831 241.657 853.453 240.587 851.638C239.505 849.8 238.948 847.961 238.917 846.123C238.886 844.284 239.325 842.586 240.234 841.029C241.153 839.436 242.473 838.132 244.197 837.117C245.782 836.183 247.405 835.707 249.065 835.688C250.749 835.656 252.364 836.113 253.911 837.058C255.468 837.967 256.828 839.41 257.992 841.386C259.143 843.339 259.756 845.221 259.833 847.033C259.91 848.844 259.533 850.49 258.702 851.97C257.881 853.413 256.666 854.608 255.058 855.556ZM253.951 853.283C255.238 852.525 256.218 851.561 256.89 850.391C257.572 849.185 257.889 847.884 257.841 846.488C257.802 845.057 257.37 843.64 256.545 842.238C255.706 840.814 254.676 839.749 253.456 839.044C252.259 838.325 250.974 837.983 249.602 838.018C248.239 838.016 246.914 838.394 245.628 839.152C244.364 839.896 243.403 840.865 242.744 842.058C242.071 843.228 241.747 844.517 241.772 845.926C241.798 847.335 242.23 848.752 243.069 850.176C243.894 851.578 244.924 852.643 246.158 853.371C247.378 854.076 248.669 854.429 250.032 854.431C251.381 854.41 252.688 854.027 253.951 853.283ZM261.953 851.262L258.745 845.817L256.835 842.021L254.338 838.571L246.786 825.75L249.233 824.308L264.297 849.882L261.953 851.262Z" fill="#FF556E"/>
        <path d="M292 597H511.068C517.373 597 523.161 593.51 526.103 587.933L553.996 535.067C556.939 529.49 562.726 526 569.032 526H780" stroke="#FF556E" stroke-width="8"/>
        <path d="M292 585H499.873C506.252 585 512.094 581.429 515.003 575.752L541.903 523.248C544.812 517.571 550.654 514 557.033 514H774" stroke="#181818" stroke-width="8"/>
        <path d="M292 573H490.88C497.116 573 502.851 569.586 505.824 564.104L534.676 510.896C537.649 505.414 543.384 502 549.62 502H774" stroke="#181818" stroke-width="8"/>
        <path d="M492 601V777.64C492 786.561 488.688 795.164 482.705 801.782L446.22 842.142C439.395 849.692 429.692 854 419.515 854H292" stroke="#181818" stroke-width="8"/>
        <path d="M481 601V772.564C481 781.229 477.874 789.604 472.197 796.151L442.512 830.379C435.821 838.094 426.169 842.604 415.958 842.786L292 845" stroke="#181818" stroke-width="8"/>
        <path d="M470 601V768.98C470 777.814 466.752 786.34 460.874 792.934L437.68 818.954C430.849 826.617 421.072 831 410.806 831H291.5" stroke="#FF556E" stroke-width="8"/>
        <path d="M288 950.5H336.577C347.009 950.5 356.927 945.975 363.765 938.097L390.188 907.653C395.871 901.105 399 892.726 399 884.056V637.13C399 630.277 401.487 623.657 406 618.5V618.5C410.513 613.343 413 606.723 413 599.87V569.884C413 563.914 410.454 558.226 406 554.25V554.25C401.546 550.274 399 544.586 399 538.616V317.887C399 306.619 393.725 296.002 384.745 289.196L313.564 235.248C307.358 230.545 299.786 228 292 228V228" stroke="#FF556E" stroke-width="8"/>
        <path d="M291.5 964H345.371C355.341 964 364.864 959.866 371.672 952.582L402.667 919.42C408.9 912.752 412.367 903.965 412.367 894.838V639.431C412.367 632.11 415.163 625.065 420.183 619.737V619.737C425.204 614.409 428 607.365 428 600.044V569.749C428 563.317 425.135 557.219 420.183 553.114V553.114C415.232 549.009 412.367 542.911 412.367 536.479V308.25C412.367 296.484 406.617 285.461 396.969 278.728L312.783 219.978C306.74 215.761 299.549 213.5 292.18 213.5H292" stroke="#181818" stroke-width="8"/>
        <path d="M289.5 185L410.246 266.63C420.149 273.325 426.083 284.499 426.083 296.454V532.525C426.083 539.342 429.199 545.786 434.542 550.021V550.021C439.885 554.255 443 560.699 443 567.516V598.301C443 606.021 439.962 613.431 434.542 618.929V618.929C429.122 624.427 426.083 631.837 426.083 639.557V903.481C426.083 912.889 422.4 921.924 415.823 928.65L381.091 964.169C374.318 971.096 365.039 975 355.352 975H290.5" stroke="#181818" stroke-width="8"/>
        <path d="M430 435L776 437" stroke="#FF556E" stroke-width="8"/>
        <path d="M430 435L776 437" stroke="#181818" stroke-width="8"/>
        <path d="M416 449L776 449" stroke="#FF556E" stroke-width="8"/>
        <path d="M416 449L776 449" stroke="#181818" stroke-width="8"/>
        <path d="M401 461H780" stroke="#FF556E" stroke-width="8"/>
        <path d="M401 461H780" stroke="#FF556E" stroke-width="8"/>
    </g>
    <defs>
        <clipPath id="clip0_716_47">
            <rect width="1920" height="1080" rx="30" fill="white"/>
        </clipPath>
    </defs>
</svg>
