<svg width="400" height="400" viewBox="0 0 400 400" fill="none" xmlns="http://www.w3.org/2000/svg">
    <path d="M81 158.271C81 156.945 81.8105 155.755 83.0418 155.273L315.626 64.2232C317.729 63.3998 320 64.9561 320 67.2211V95.7289C320 97.0547 319.189 98.2448 317.958 98.7268L85.3743 189.777C83.2708 190.6 81 189.044 81 186.779V158.271Z" fill="#FF556E"/>
    <path d="M81 233.233C81 231.906 81.8126 230.715 83.0469 230.231L195.614 186.224C197.723 185.399 200 186.957 200 189.225V217.767C200 219.094 199.187 220.285 197.953 220.768L85.3854 264.776C83.2766 265.601 81 264.043 81 261.775V233.233Z" fill="#FF556E"/>
    <path d="M81 305.271C81 303.945 81.8105 302.755 83.0418 302.274L315.626 211.223C317.729 210.4 320 211.956 320 214.221V242.729C320 244.055 319.189 245.245 317.958 245.727L85.3743 336.777C83.2708 337.6 81 336.044 81 333.779V305.271Z" fill="#FF556E"/>
</svg>
